# xmcd CD database file
# Copyright (C) 1993-1996 Ti Kan
#
# Track frame offsets:
#	150
#	20237
#	33472
#	47320
#	62905
#	82052
#	94892
#
# Disc length: 1474 seconds
#
# Revision: 1
# Processed by: cddbd v1.4b41PL1 Copyright (c) Steve Scherf et al.
# Submitted via: CDValet v3.01 - Copyright (c) 1997 Greg Leichner
#
DISCID=5905c007
DTITLE=Hal Ketchum - Every Little Word (Bonus CD)
DYEAR=1900
DGENRE=
TTITLE0=Past The Point Of Rescue
TTITLE1=Small Town Saturday Night
TTITLE2=Five O'Clock World
TTITLE3=Sure Love
TTITLE4=Mama Knows The Highway
TTITLE5=Daddy's Oldsmobile
TTITLE6=Softer Than A Whisper
EXTD=
EXTT0=
EXTT1=
EXTT2=
EXTT3=
EXTT4=
EXTT5=
EXTT6=
PLAYORDER=
